<svg xmlns="http://www.w3.org/2000/svg" version="1.1" xmlns:xlink="http://www.w3.org/1999/xlink" xmlns:svgjs="http://svgjs.dev/svgjs" width="1000" height="1000" viewBox="0 0 1000 1000"><rect width="1000" height="1000" fill="#ffffff"></rect><g transform="matrix(0.7,0,0,0.7,149.57575757575745,382.8180006882425)"><svg viewBox="0 0 396 133" data-background-color="#f9f9f9" preserveAspectRatio="xMidYMid meet" height="335" width="1000" xmlns="http://www.w3.org/2000/svg" xmlns:xlink="http://www.w3.org/1999/xlink"><g id="tight-bounds" transform="matrix(1,0,0,1,0.24000000000006594,-0.038567554525599235)"><svg viewBox="0 0 395.51999999999987 133.0771351090512" height="133.0771351090512" width="395.51999999999987"><g><svg viewBox="0 0 628.8444522970246 211.58176107632602" height="133.0771351090512" width="395.51999999999987"><g transform="matrix(1,0,0,1,0,59.740686489003885)"><svg viewBox="0 0 395.52 92.10038809831825" height="92.10038809831825" width="395.52"><g id="textblocktransform"><svg viewBox="0 0 395.52 92.10038809831825" height="92.10038809831825" width="395.52" id="textblock"><g><svg viewBox="0 0 395.52 92.10038809831825" height="92.10038809831825" width="395.52"><g transform="matrix(1,0,0,1,0,0)"><svg width="395.52" viewBox="1.5 -35.45 154.59 36" height="92.10038809831825" data-palette-color="#030303"><path d="M16.8-35.45Q20.45-35.45 23.23-34.43 26-33.4 26-31.65 26-29.9 24.68-27.33 23.35-24.75 22.45-24.75L22.45-24.75Q22.2-24.75 21.88-25.03 21.55-25.3 20.38-25.63 19.2-25.95 18.35-25.95L18.35-25.95Q15.45-25.95 13.68-23.9 11.9-21.85 11.9-17.63 11.9-13.4 13.73-11.35 15.55-9.3 18.35-9.3L18.35-9.3Q19.5-9.3 20.93-9.63 22.35-9.95 22.95-10.55L22.95-10.55Q23.05-10.65 23.35-10.65 23.65-10.65 24.48-9.53 25.3-8.4 26-6.58 26.7-4.75 26.7-3.75L26.7-3.75Q26.7-1.8 23.7-0.65 20.7 0.5 16.6 0.5L16.6 0.5Q10 0.5 5.75-4.15 1.5-8.8 1.5-17.28 1.5-25.75 5.88-30.6 10.25-35.45 16.8-35.45L16.8-35.45ZM28.5-4.5L28.5-4.5Q28.5-5.95 29.35-7.88 30.2-9.8 31.2-10.5L31.2-10.5Q33.1-9.1 35.05-9.1L35.05-9.1 36.6-9.35Q39.3-10.15 39.4-13.65L39.4-13.65 39.4-26.4 35.4-26.4Q34.55-26.4 34.2-28.55L34.2-28.55Q34.05-29.6 34.05-30.7 34.05-31.8 34.2-32.85L34.2-32.85Q34.55-35 35.4-35L35.4-35 47.3-35Q48.3-35 48.8-34.43 49.3-33.85 49.3-33.05L49.3-33.05 49.3-9.45Q49.3-4.55 46.02-2 42.75 0.55 38.17 0.55 33.6 0.55 31.05-0.8 28.5-2.15 28.5-4.5ZM78.2-25.95L78.2-25.95Q78.2-20.75 73.7-18.05L73.7-18.05Q76.15-17.15 77.8-14.95 79.45-12.75 79.45-8.72 79.45-4.7 76.47-2.35 73.5 0 67.95 0L67.95 0 56.15 0Q55.3 0 54.75-0.58 54.2-1.15 54.2-2.1L54.2-2.1 54.2-34.1Q54.2-34.65 54.37-34.83 54.55-35 55.1-35L55.1-35 66.5-35Q78.2-35 78.2-25.95ZM64.84-26.9L63.8-26.9 63.8-20.35 64.05-20.35Q68.84-20.35 68.84-23.55L68.84-23.55Q68.84-25.3 67.92-26.1 67-26.9 64.84-26.9L64.84-26.9ZM64.84-14.45L63.8-14.45 63.8-7.95 64.7-7.95Q66.84-7.95 67.84-8.75 68.84-9.55 68.84-11.3 68.84-13.05 67.92-13.75 67-14.45 64.84-14.45L64.84-14.45ZM83.19-8.6L86.64-8.6 86.64-26.4 83.09-26.4Q82.24-26.4 81.89-28.55L81.89-28.55Q81.74-29.6 81.74-30.7 81.74-31.8 81.89-32.85L81.89-32.85Q82.24-35 83.09-35L83.09-35 99.89-35Q100.74-35 101.04-32.85L101.04-32.85Q101.24-31.8 101.24-30.7 101.24-29.6 101.04-28.55L101.04-28.55Q100.74-26.4 99.89-26.4L99.89-26.4 96.54-26.4 96.54-8.6 100.04-8.6Q100.89-8.6 101.24-6.45L101.24-6.45Q101.44-5.4 101.44-4.3 101.44-3.2 101.24-2.15L101.24-2.15Q100.89 0 100.04 0L100.04 0 83.19 0Q82.34 0 82.04-2.15L82.04-2.15Q81.84-3.2 81.84-4.3 81.84-5.4 82.04-6.45L82.04-6.45Q82.34-8.6 83.19-8.6L83.19-8.6ZM114.79-12.75L114.79-0.7Q114.79 0.05 110.09 0.05L110.09 0.05 107.29-0.1Q104.79-0.3 104.79-0.8L104.79-0.8 104.79-34.35Q104.79-35.2 109.79-35.2 114.79-35.2 114.79-34.35L114.79-34.35 114.79-21.55 120.89-34.35Q121.24-35.05 124.89-35.05L124.89-35.05Q131.54-35.05 131.89-33.9L131.89-33.9Q131.89-33.8 131.84-33.7L131.84-33.7 123.14-18 133.24-4.05Q133.24-3.95 132.29-3.2L132.29-3.2Q129.99-1.2 126.89-0.05L126.89-0.05Q125.94 0.3 124.99 0.3L124.99 0.3 123.79 0.2Q122.19-0.2 121.29-1.85L121.29-1.85 115.59-12.75 114.79-12.75ZM145.59-21.1L152.04-21.1Q152.99-21.1 152.99-17.6L152.99-17.6Q152.99-16.55 152.76-15.13 152.54-13.7 151.94-13.7L151.94-13.7 145.59-13.7 145.59-8.7 154.79-8.7Q155.64-8.7 155.94-6.5L155.94-6.5Q156.09-5.55 156.09-4.48 156.09-3.4 155.79-1.7 155.49 0 154.79 0L154.79 0 137.69 0Q135.79 0 135.79-1.55L135.79-1.55 135.79-33.7Q135.79-35 136.94-35L136.94-35 154.84-35Q155.89-35 155.89-30.58 155.89-26.15 154.84-26.15L154.84-26.15 145.59-26.15 145.59-21.1Z" opacity="1" transform="matrix(1,0,0,1,0,0)" fill="#000000" class="wordmark-text-0" data-fill-palette-color="primary" id="text-0"></path></svg></g></svg></g></svg></g></svg></g><g transform="matrix(1,0,0,1,417.26269122069857,0)"><svg viewBox="0 0 211.58176107632602 211.58176107632602" height="211.58176107632602" width="211.58176107632602"><g><svg></svg></g><g id="icon-0"><svg viewBox="0 0 211.58176107632602 211.58176107632602" height="211.58176107632602" width="211.58176107632602"><g><rect width="192.38267534902977" height="192.38267534902977" x="9.599542863648125" y="9.599542863648125" fill="#000000" data-fill-palette-color="accent"></rect><rect width="192.38267534902977" height="192.38267534902977" x="1.7763568394002505e-15" y="1.7763568394002505e-15" fill="#000000" opacity="0.5" data-fill-palette-color="accent"></rect></g><g transform="matrix(1,0,0,1,27.427265324708927,64.29463058468434)"><svg viewBox="0 0 156.72723042690816 82.99249990695732" height="82.99249990695732" width="156.72723042690816"><g><svg xmlns="http://www.w3.org/2000/svg" xmlns:xlink="http://www.w3.org/1999/xlink" version="1.1" x="0" y="0" viewBox="1.1770000000000103 24.146 97.64799999999998 51.708" enable-background="new 0 0 100 100" xml:space="preserve" height="82.99249990695732" width="156.72723042690816" class="icon-z$-0" data-fill-palette-color="background" id="z$-0"><g fill="#f9f9f9" data-fill-palette-color="background"><path d="M80.276 38.757c-3.057 0-5.94 0.748-8.485 2.063L61.383 25.043c-0.369-0.56-0.995-0.897-1.666-0.897h-8.968c-1.103 0-1.996 0.894-1.996 1.996 0 1.103 0.894 1.997 1.996 1.997h7.893l4.701 7.125h-29.64c-0.026 0-0.049 0.008-0.075 0.009-0.117 0.005-0.231 0.018-0.347 0.042-0.047 0.01-0.093 0.024-0.14 0.038-0.096 0.028-0.188 0.063-0.279 0.106-0.046 0.021-0.092 0.043-0.136 0.068-0.086 0.049-0.167 0.107-0.248 0.17-0.039 0.031-0.08 0.058-0.117 0.091-0.013 0.012-0.027 0.02-0.04 0.031-0.089 0.085-0.164 0.178-0.234 0.274-0.006 0.009-0.015 0.016-0.021 0.024l-0.004 0.007c-0.001 0.001-0.002 0.003-0.004 0.005l-3.425 4.912c-2.645-1.455-5.681-2.285-8.908-2.285-10.227 0-18.548 8.321-18.548 18.549 0 10.227 8.321 18.548 18.548 18.548 9.558 0 17.449-7.269 18.441-16.567l14.748-0.013c0.002 0 0.003 0 0.005 0 0.149-0.001 0.296-0.023 0.442-0.057 0.043-0.01 0.084-0.023 0.126-0.036 0.104-0.032 0.206-0.072 0.306-0.122 0.041-0.019 0.081-0.038 0.12-0.061 0.106-0.062 0.208-0.135 0.304-0.219 0.021-0.018 0.044-0.032 0.063-0.051 0.005-0.004 0.01-0.007 0.014-0.011 0.11-0.104 0.201-0.221 0.281-0.343 0.006-0.008 0.014-0.014 0.019-0.021L66.401 39.9l2.059 3.12c-4.109 3.405-6.732 8.545-6.732 14.286 0 10.227 8.321 18.548 18.549 18.548s18.548-8.321 18.548-18.548C98.824 47.078 90.504 38.757 80.276 38.757zM33.948 40.398l14.285 14.887-10.071 0.009c-0.516-4.755-2.836-8.974-6.26-11.962L33.948 40.398zM34.138 55.297l-10.586 0.009 6.052-8.678C32.012 48.858 33.666 51.891 34.138 55.297zM19.724 71.861c-8.026 0-14.556-6.53-14.556-14.556 0-8.027 6.53-14.556 14.556-14.556 2.378 0 4.623 0.577 6.607 1.592l-8.244 11.821c-0.426 0.61-0.477 1.406-0.132 2.066 0.344 0.659 1.026 1.072 1.769 1.072 0.001 0 0.001 0 0.002 0l14.415-0.013C33.17 66.38 27.077 71.861 19.724 71.861zM52.597 54.065l-14.211-14.81h23.688L52.597 54.065zM80.276 71.861c-8.026 0-14.556-6.53-14.556-14.556 0-4.351 1.921-8.258 4.955-10.927l7.935 12.026c0.383 0.582 1.02 0.897 1.668 0.897 0.377 0 0.759-0.106 1.098-0.33 0.92-0.607 1.174-1.845 0.566-2.766l-7.939-12.034c1.901-0.912 4.028-1.423 6.273-1.423 8.025 0 14.556 6.529 14.556 14.556C94.832 65.331 88.302 71.861 80.276 71.861z" fill="#f9f9f9" data-fill-palette-color="background"></path><path d="M25.879 33.6h11.479c1.103 0 1.996-0.894 1.996-1.997 0-1.102-0.894-1.996-1.996-1.996H25.879c-1.103 0-1.996 0.894-1.996 1.996C23.883 32.706 24.776 33.6 25.879 33.6z" fill="#f9f9f9" data-fill-palette-color="background"></path></g></svg></g></svg></g></svg></g></svg></g></svg></g><defs></defs></svg><rect width="395.51999999999987" height="133.0771351090512" fill="none" stroke="none" visibility="hidden"></rect></g></svg></g></svg>